<svg width="1545" height="737" viewBox="0 0 1545 737" fill="none" xmlns="http://www.w3.org/2000/svg">
<path d="M1098.14 135.361C1118.68 99.7551 1164.18 87.5555 1199.76 108.113L1480.58 270.358C1516.16 290.916 1528.35 336.445 1507.8 372.051L1345.68 653.069C1325.13 688.675 1279.64 700.875 1244.06 680.317L963.243 518.072C927.663 497.515 915.472 451.985 936.014 416.379L1098.14 135.361Z" fill="#39373D"/>
<path fill-rule="evenodd" clip-rule="evenodd" d="M1230.45 285.181L1194.19 348.03C1181.67 369.724 1189.1 397.464 1210.78 409.989C1232.45 422.513 1260.17 415.081 1272.69 393.387L1308.95 330.538C1321.47 308.844 1314.04 281.104 1292.36 268.579C1270.68 256.055 1242.96 263.487 1230.45 285.181ZM1165.22 356.462C1167.4 347.899 1162.23 339.19 1153.68 337.009C1145.12 334.827 1136.42 340.001 1134.24 348.563C1123.76 389.727 1136.07 428.414 1167.39 453.191L1143.09 495.319L1135.09 509.175L1162.78 525.174L1170.78 511.318L1195.08 469.19C1232.19 483.949 1271.82 475.27 1302.2 445.607C1308.52 439.437 1308.65 429.308 1302.48 422.983C1296.32 416.658 1286.2 416.533 1279.88 422.703C1255.27 446.719 1224.65 450.645 1196.65 434.471C1168.66 418.296 1156.74 389.789 1165.22 356.462Z" fill="white"/>
<path d="M37.37 372.205C16.8259 336.6 29.0161 291.073 64.5976 270.517L345.689 108.129C381.271 87.5738 426.77 99.774 447.314 135.379L609.611 416.659C630.155 452.264 617.965 497.791 582.384 518.347L301.292 680.735C265.71 701.29 220.212 689.09 199.667 653.485L37.37 372.205Z" fill="#39373D"/>
<path fill-rule="evenodd" clip-rule="evenodd" d="M200.989 371.349C197.319 364.989 199.497 356.856 205.852 353.184L299.545 299.051L312.968 322.317C324.273 341.912 349.311 348.626 368.893 337.313L392.142 323.88L459.792 441.14C463.462 447.5 461.285 455.632 454.929 459.305L314.04 540.706C307.684 544.378 299.557 542.199 295.888 535.839L200.989 371.349ZM373.123 302.916L326.49 290.411L336.915 308.481C340.585 314.841 348.711 317.02 355.067 313.348L373.123 302.916ZM192.027 329.22C172.445 340.533 165.736 365.59 177.041 385.185L271.941 549.674C283.246 569.27 308.285 575.984 327.866 564.67L468.755 483.269C488.336 471.956 495.045 446.9 483.74 427.304L408.013 296.046C402.584 286.636 393.642 279.77 383.153 276.957L330.773 262.912C320.285 260.1 309.111 261.572 299.708 267.005L192.027 329.22Z" fill="white"/>
<path fill-rule="evenodd" clip-rule="evenodd" d="M292.145 394.715C326.77 397.258 346.18 402.368 351.302 411.247C356.259 419.838 355.545 429.515 349.42 439.838C347.724 442.697 343.348 441.568 343.244 438.245C343.066 432.527 339.477 428.087 331.902 424.712C327.239 422.635 322.233 421.513 316.864 421.355L343.339 467.244C343.395 467.341 343.448 467.438 343.498 467.536C343.586 467.677 343.672 467.82 343.755 467.964C348.677 476.496 343.965 487.993 333.777 493.879C323.59 499.765 311.284 498.101 306.362 489.569C301.44 481.037 306.153 469.541 316.34 463.655C318.876 462.189 321.543 461.192 324.195 460.652L298.62 416.323C298.608 416.302 298.597 416.281 298.585 416.261L289.026 399.692C287.693 397.381 289.486 394.52 292.145 394.715Z" fill="white"/>
<path d="M398.897 74.4444C398.897 33.3299 432.203 0 473.288 0L1060.97 0C1102.06 0 1135.36 33.3299 1135.36 74.4444V662.556C1135.36 703.67 1102.06 737 1060.97 737H473.288C432.203 737 398.897 703.67 398.897 662.556L398.897 74.4444Z" fill="#29272D"/>
<path fill-rule="evenodd" clip-rule="evenodd" d="M772.655 136.062L790.788 154.426L942.989 308.565L906.722 344.428L796.752 233.057L796.752 476.434H745.766L745.766 235.885L638.588 344.428L602.321 308.565L754.521 154.426L772.655 136.062ZM572.979 600.934H969.538V549.911H572.979L572.979 600.934Z" fill="white"/>
</svg>
